<?xml version="1.0" encoding="UTF-8" standalone="no"?>
<svg
        xmlns:dc="http://purl.org/dc/elements/1.1/"
        xmlns:cc="http://creativecommons.org/ns#"
        xmlns:rdf="http://www.w3.org/1999/02/22-rdf-syntax-ns#"
        xmlns:sodipodi="http://sodipodi.sourceforge.net/DTD/sodipodi-0.dtd"
        xmlns:inkscape="http://www.inkscape.org/namespaces/inkscape"
        xmlns="http://www.w3.org/2000/svg"
        version="1.1"
        x="0px"
        y="0px"
        viewBox="0 0 100 125"
        style="enable-background:new 0 0 100 100;"
        xml:space="preserve"
        id="svg70"
        sodipodi:docname="fish3.svg"
        inkscape:version="0.92.2 5c3e80d, 2017-08-06"><metadata
     id="metadata76"><rdf:RDF><cc:Work
         rdf:about=""><dc:format>image/svg+xml</dc:format><dc:type
        rdf:resource="http://purl.org/dc/dcmitype/StillImage"/><dc:title></dc:title></cc:Work></rdf:RDF></metadata>
    <defs
            id="defs74"/>
    <sodipodi:namedview
            pagecolor="#ffffff"
            bordercolor="#666666"
            borderopacity="1"
            objecttolerance="10"
            gridtolerance="10"
            guidetolerance="10"
            inkscape:pageopacity="0"
            inkscape:pageshadow="2"
            inkscape:window-width="640"
            inkscape:window-height="480"
            id="namedview72"
            showgrid="false"
            inkscape:zoom="1.888"
            inkscape:cx="50"
            inkscape:cy="62.5"
            inkscape:window-x="0"
            inkscape:window-y="0"
            inkscape:window-maximized="0"
            inkscape:current-layer="svg70"/>
    <g
            id="g10"><g
       id="g8"><g
         id="g6"><g
           id="g4"><path
             d="M86.16,65.86c-2.44,0-4.11-2.54-4.72-3.52c-0.34-0.43-3.51-4.34-8.36-4.27c-1.12,0-2.02-0.86-2.04-1.96      S71.9,54.1,73,54.08c0.08,0,0.15,0,0.23,0c7.03,0,11.28,5.7,11.46,5.95c0.03,0.04,0.05,0.08,0.08,0.11      c0.6,0.95,1.04,1.39,1.28,1.59c0.03-0.05,0.06-0.11,0.08-0.16c0.04-0.09,0.1-0.21,0.15-0.3c1.97-3.19,2.61-5.72,3.05-9.01      c0.38-2.91,0.23-6.05,0.23-6.08c0-0.03,0-0.07,0-0.1c0.01-4.56-0.63-6.11-0.9-6.57c-0.16,0.09-0.37,0.25-0.5,0.39      c-0.05,0.06-0.13,0.13-0.19,0.18c-2.45,2.03-11.66,5.51-13.2,5.97c-1.05,0.32-2.17-0.28-2.49-1.33      c-0.32-1.06,0.28-2.17,1.33-2.49c1.97-0.6,9.9-3.76,11.72-5.16c1.08-1.12,2.93-2.11,4.75-1.4c2.42,0.94,3.49,4.14,3.48,10.37      c0.02,0.47,0.14,3.66-0.26,6.74c-0.49,3.69-1.25,6.74-3.53,10.46c-0.51,1.15-1.63,2.45-3.28,2.61      C86.38,65.85,86.27,65.86,86.16,65.86z"
             id="path2" /></g></g></g></g>
    <g
            id="g20"><g
       id="g18"><g
         id="g16"><g
           id="g14"><path
             d="M48.28,88.6c-1.85,0-9.47-0.38-14.06-6.35c-0.36-0.43-2.39-2.95-4.77-8.16c-5.34-3.47-8.43-6.91-8.56-7.05      c-3-3.3-6-3.14-6.13-3.13c-0.04,0-0.12,0.01-0.16,0.01c-4.98,0-6.54-1.52-7.02-2.66c-1.13-1.91-1.45-3.49-0.97-4.82      c0.38-1.05,1.2-1.66,1.83-1.88c0.05-0.02,0.09-0.03,0.14-0.04l6.65-1.75c3.92-1.05,4.08-3.44,4.09-3.71      c0.12-6.69,2.36-15.72,2.45-16.1c5.9-23.6,33.51-21.56,35.12-21.43c12.27,0.59,20.07,3,20.4,3.1c4.64,1.54,7.38,3.79,8.17,6.71      c0.94,3.43-1.28,6.34-1.7,6.85c-5.08,6.76-6.95,13.01-7.14,13.68c-4.15,21.83,0.63,27.1,0.68,27.15      c0.09,0.08,0.12,0.12,0.2,0.22c2.6,3.34,3.48,6,2.68,8.13c-0.57,1.53-1.89,2.34-2.92,2.61c-6.74,2.48-22.73,1.67-23.99,1.6      c-0.78,0-3.78-0.04-5.88-0.08c0.63,1.13,1.51,2.43,2.69,3.78c0.5,0.58,0.63,1.39,0.33,2.1c-0.3,0.71-0.98,1.18-1.75,1.21      C48.65,88.6,48.51,88.6,48.28,88.6z M14.83,59.91c1.29,0,5.31,0.36,9.04,4.46c0.04,0.05,3,3.32,8.07,6.57l0.25,0.17      c0.3,0.21,0.54,0.49,0.68,0.83c2.39,5.37,4.4,7.72,4.42,7.75c0.03,0.03,0.06,0.07,0.08,0.1c1.9,2.49,4.62,3.7,6.9,4.28      c-1.89-3.14-2.35-5.47-2.37-5.6c-1.38-6.51-4.56-10.03-4.6-10.06c-0.75-0.81-0.7-2.07,0.11-2.82c0.81-0.75,2.06-0.71,2.82,0.09      c0.16,0.17,3.89,4.22,5.55,11.8c1.56,0.02,6.68,0.1,7.57,0.1c0.04,0,0.08,0,0.11,0c4.58,0.26,17.56,0.51,22.52-1.39      c0.15-0.06,0.16-0.07,0.31-0.09c0-0.01,0.13-0.06,0.16-0.14c0.01-0.04,0.33-1.13-2.02-4.17c-1.18-1.23-6.06-7.9-1.71-30.75      c0.01-0.05,0.02-0.09,0.03-0.14c0.08-0.3,1.99-7.36,7.85-15.16c0.03-0.04,0.06-0.08,0.09-0.11c0,0,1.36-1.64,0.91-3.26      c-0.42-1.49-2.39-2.89-5.54-3.93c-0.04-0.01-7.67-2.36-19.4-2.92c-0.04,0-0.08,0-0.11-0.01c-1.04-0.11-25.69-2.39-30.89,18.41      c-0.02,0.09-2.23,8.97-2.33,15.16c0.01,0.15,0.07,5.65-7.07,7.56l-5.76,1.51c0.09,0.27,0.27,0.66,0.6,1.21      c0.01,0.01,0.02,0.02,0.02,0.04c0.24,0.14,1.12,0.52,3.42,0.53C14.62,59.91,14.71,59.91,14.83,59.91z M11.34,59.92      C11.34,59.92,11.34,59.92,11.34,59.92C11.34,59.92,11.34,59.92,11.34,59.92z M11.34,59.92C11.34,59.92,11.34,59.92,11.34,59.92      C11.34,59.92,11.34,59.92,11.34,59.92z M11.34,59.91C11.34,59.91,11.34,59.91,11.34,59.91C11.34,59.91,11.34,59.91,11.34,59.91z       M11.34,59.91C11.34,59.91,11.34,59.91,11.34,59.91C11.34,59.91,11.34,59.91,11.34,59.91z M11.05,59.34L11.05,59.34L11.05,59.34      z"
             id="path12" /></g></g></g></g>
    <g
            id="g30"><g
       id="g28"><g
         id="g26"><g
           id="g24"><path
             d="M48.59,68.44c-0.4,0-0.77-0.24-0.93-0.63c-10.75-26.74,3.61-43.87,3.76-44.04c0.36-0.42,0.99-0.46,1.41-0.1      c0.42,0.36,0.47,0.99,0.11,1.41c-0.14,0.16-13.7,16.41-3.42,41.98c0.21,0.51-0.04,1.09-0.55,1.3      C48.84,68.41,48.72,68.44,48.59,68.44z"
             id="path22" /></g></g></g></g>
    <g
            id="g40"><g
       id="g38"><g
         id="g36"><g
           id="g34"><path
             d="M56.7,65.59c-0.44,0-0.85-0.3-0.97-0.74c-5.64-21.26,1.67-34.47,1.98-35.02c0.27-0.48,0.88-0.65,1.36-0.38      c0.48,0.27,0.65,0.88,0.38,1.36c-0.07,0.13-7.21,13.1-1.79,33.52c0.14,0.53-0.18,1.08-0.71,1.22      C56.88,65.58,56.79,65.59,56.7,65.59z"
             id="path32" /></g></g></g></g>
    <g
            id="g50"><g
       id="g48"><g
         id="g46"><g
           id="g44"><path
             d="M65.48,59.52c-0.44,0-0.84-0.29-0.96-0.73c-3.72-13.45,1.12-21.84,1.33-22.19c0.28-0.47,0.89-0.63,1.37-0.35      c0.47,0.28,0.63,0.89,0.35,1.37c-0.06,0.11-4.59,8.09-1.13,20.64c0.15,0.53-0.17,1.08-0.7,1.23      C65.65,59.51,65.56,59.52,65.48,59.52z"
             id="path42" /></g></g></g></g>
    <g
            id="g64"><g
       id="g62"><g
         id="g60"><g
           id="g58"><g
             id="g56"><g
               id="g54"><path
                 d="M30.2,53.87c-1.06,0-1.93-0.87-1.93-1.93c0-1.06,0.87-1.93,1.93-1.93c1.06,0,1.93,0.87,1.93,1.93        C32.13,53.01,31.26,53.87,30.2,53.87z M30.2,51.87c-0.04,0-0.07,0.03-0.07,0.07c0,0.04,0.03,0.07,0.07,0.07        C30.27,51.9,30.24,51.87,30.2,51.87z"
                 id="path52" /></g></g></g></g></g></g></svg>